<svg width="347" height="312" viewBox="0 0 347 312" fill="none" xmlns="http://www.w3.org/2000/svg">
<path d="M6.37109 190.781C5.85026 190.26 5.58984 189.154 5.58984 187.461C5.58984 184.857 5.85026 183.555 6.37109 183.555C7.41276 183.555 8.91016 183.359 10.8633 182.969C12.8164 182.578 14.6393 182.057 16.332 181.406C18.0247 180.625 19.0013 179.909 19.2617 179.258C20.043 176.263 20.4336 170.534 20.4336 162.07V88.2422C20.4336 80.9505 20.043 75.8724 19.2617 73.0078C19.0013 72.2266 17.9596 71.4453 16.1367 70.6641C14.444 69.7526 12.6211 69.0365 10.668 68.5156C8.71484 67.8646 7.21745 67.5391 6.17578 67.5391C5.65495 67.5391 5.39453 66.3672 5.39453 64.0234C5.39453 61.9401 5.58984 60.7031 5.98047 60.3125C11.1888 60.5729 16.1367 60.8333 20.8242 61.0938C25.6419 61.224 30.2643 61.2891 34.6914 61.2891H68.6758C79.2227 61.2891 88.6628 62.9818 96.9961 66.3672C105.46 69.7526 112.621 74.375 118.48 80.2344C124.34 86.0938 128.767 92.7995 131.762 100.352C134.887 107.904 136.449 115.911 136.449 124.375C136.449 136.875 133.715 148.138 128.246 158.164C122.777 168.06 114.965 175.938 104.809 181.797C94.6523 187.656 82.543 190.586 68.4805 190.586C67.1784 190.586 65.2253 190.521 62.6211 190.391C60.1471 190.391 57.0221 190.326 53.2461 190.195C49.4701 189.935 46.0195 189.74 42.8945 189.609C39.7695 189.479 37.1003 189.479 34.8867 189.609L6.37109 190.781ZM71.6055 179.648C82.543 179.648 91.0065 174.961 96.9961 165.586C102.986 156.211 105.98 142.214 105.98 123.594C105.98 113.958 104.548 105.299 101.684 97.6172C98.819 89.8047 94.7174 83.6198 89.3789 79.0625C84.1706 74.5052 77.7904 72.2266 70.2383 72.2266H69.2617C58.194 72.2266 51.8789 73.2682 50.3164 75.3516C48.6237 77.5651 47.7773 81.6667 47.7773 87.6562V163.438C47.7773 171.901 48.3633 176.458 49.5352 177.109C52.3997 178.802 59.7565 179.648 71.6055 179.648ZM157.973 190.781C157.452 190.26 157.191 189.023 157.191 187.07C157.191 185.117 157.452 184.141 157.973 184.141C159.014 184.141 160.382 183.88 162.074 183.359C163.767 182.839 165.395 182.188 166.957 181.406C168.52 180.625 169.366 179.909 169.496 179.258C170.408 175.612 170.863 170.664 170.863 164.414V135.898C170.863 128.607 169.691 123.724 167.348 121.25C166.306 119.948 164.874 119.036 163.051 118.516C161.358 117.995 159.861 117.669 158.559 117.539C157.257 117.279 156.605 117.018 156.605 116.758C156.605 112.982 156.931 111.094 157.582 111.094C158.754 111.094 160.902 110.833 164.027 110.312C167.152 109.792 170.603 109.141 174.379 108.359C178.285 107.578 181.931 106.797 185.316 106.016C188.832 105.234 191.501 104.583 193.324 104.062L195.473 103.477C196.124 103.477 196.775 103.932 197.426 104.844C198.077 105.625 198.402 106.276 198.402 106.797C197.751 112.526 197.23 117.018 196.84 120.273C196.449 123.529 196.254 125.547 196.254 126.328V161.484C196.254 168.906 196.775 174.831 197.816 179.258C198.077 179.779 198.923 180.43 200.355 181.211C201.918 181.992 203.546 182.708 205.238 183.359C206.931 183.88 208.103 184.141 208.754 184.141C209.145 184.141 209.34 185.117 209.34 187.07C209.47 189.023 209.405 190.26 209.145 190.781C208.103 190.651 205.889 190.456 202.504 190.195C199.249 190.065 195.798 189.87 192.152 189.609C188.507 189.349 185.642 189.219 183.559 189.219C181.475 189.219 178.611 189.349 174.965 189.609C171.319 189.87 167.868 190.065 164.613 190.195C161.358 190.456 159.145 190.651 157.973 190.781ZM182.582 84.1406C178.546 84.1406 175.095 82.7734 172.23 80.0391C169.496 77.1745 168.129 73.724 168.129 69.6875C168.129 65.651 169.496 62.2656 172.23 59.5312C175.095 56.6667 178.546 55.2344 182.582 55.2344C186.618 55.2344 190.004 56.6667 192.738 59.5312C195.603 62.2656 197.035 65.651 197.035 69.6875C197.035 73.724 195.603 77.1745 192.738 80.0391C190.004 82.7734 186.618 84.1406 182.582 84.1406ZM231.449 190.781C230.928 190.26 230.668 188.893 230.668 186.68C230.668 184.596 230.928 183.555 231.449 183.555C232.491 183.555 233.988 183.294 235.941 182.773C237.895 182.122 239.717 181.406 241.41 180.625C243.103 179.844 244.014 179.193 244.145 178.672C245.056 175.026 245.512 170.078 245.512 163.828V86.2891C245.512 83.2943 245.382 80.625 245.121 78.2812C244.991 75.9375 244.796 73.9193 244.535 72.2266C244.014 70.1432 240.629 69.1016 234.379 69.1016H232.621C231.84 69.1016 231.449 67.7995 231.449 65.1953C231.449 62.9818 231.84 61.875 232.621 61.875C237.699 61.3542 242.582 60.638 247.27 59.7266C252.087 58.8151 256.319 57.9036 259.965 56.9922C263.741 55.9505 266.54 55.2344 268.363 54.8438L270.707 54.2578C271.228 54.1276 271.749 54.5182 272.27 55.4297C272.79 56.2109 273.116 56.9271 273.246 57.5781C271.684 63.4375 270.902 70.013 270.902 77.3047V139.414C274.418 138.372 276.632 137.526 277.543 136.875C280.147 134.661 282.882 132.318 285.746 129.844C288.741 127.37 291.475 125.026 293.949 122.812C296.163 120.859 297.79 119.297 298.832 118.125C300.004 116.823 300.59 115.521 300.59 114.219C300.59 112.396 299.483 111.484 297.27 111.484C295.056 111.354 293.168 111.159 291.605 110.898C291.475 110.378 291.345 109.792 291.215 109.141C291.215 108.49 291.215 107.708 291.215 106.797C291.215 104.974 291.475 103.997 291.996 103.867L314.262 104.062C318.038 104.062 321.618 104.062 325.004 104.062C328.52 103.932 331.71 103.802 334.574 103.672C335.095 103.802 335.355 104.518 335.355 105.82C335.486 106.992 335.486 108.164 335.355 109.336C335.225 110.378 335.03 110.898 334.77 110.898C330.863 110.898 326.306 112.396 321.098 115.391C312.113 120.599 303.194 127.695 294.34 136.68C304.496 147.747 312.699 157.057 318.949 164.609C325.329 172.031 329.757 176.654 332.23 178.477C333.923 179.909 336.137 181.146 338.871 182.188C341.605 183.099 343.559 183.555 344.73 183.555C345.382 183.555 345.707 184.792 345.707 187.266C345.707 188.698 345.577 189.805 345.316 190.586L320.707 189.414C319.145 189.284 317.126 189.349 314.652 189.609C312.178 189.74 309.249 189.935 305.863 190.195L294.73 190.781C294.21 190.26 293.949 188.893 293.949 186.68C293.949 184.596 294.21 183.555 294.73 183.555C296.033 183.555 297.53 183.294 299.223 182.773C300.915 182.253 301.762 181.667 301.762 181.016C301.762 180.755 301.697 180.56 301.566 180.43L273.051 147.812L270.902 148.398V160.898C270.902 169.492 271.358 175.417 272.27 178.672C272.53 179.193 273.507 179.844 275.199 180.625C276.892 181.406 278.65 182.122 280.473 182.773C282.426 183.294 283.793 183.555 284.574 183.555C284.835 183.555 285.03 184.076 285.16 185.117C285.29 186.159 285.355 187.266 285.355 188.438C285.355 189.609 285.225 190.391 284.965 190.781C284.184 190.781 282.686 190.651 280.473 190.391C278.259 190.26 275.655 190.13 272.66 190C269.796 189.74 267.061 189.544 264.457 189.414C261.853 189.284 259.77 189.219 258.207 189.219C256.645 189.219 254.496 189.284 251.762 189.414C249.158 189.544 246.423 189.74 243.559 190C240.694 190.13 238.155 190.26 235.941 190.391C233.728 190.651 232.23 190.781 231.449 190.781Z" fill="#BBBEC0"/>
<path d="M98.4541 251V221.6H108.996C111.46 221.6 113.574 221.992 115.338 222.776C117.102 223.56 118.46 224.694 119.412 226.178C120.364 227.634 120.84 229.412 120.84 231.512C120.84 233.556 120.364 235.32 119.412 236.804C118.46 238.288 117.102 239.422 115.338 240.206C113.574 240.99 111.46 241.382 108.996 241.382H99.6301L100.596 240.374V251H98.4541ZM100.596 240.5L99.6301 239.45H108.996C112.16 239.45 114.554 238.764 116.178 237.392C117.83 235.992 118.656 234.032 118.656 231.512C118.656 228.964 117.83 227.004 116.178 225.632C114.554 224.232 112.16 223.532 108.996 223.532H99.6301L100.596 222.482V240.5ZM136.176 251.168C133.964 251.168 132.004 250.692 130.296 249.74C128.616 248.788 127.286 247.472 126.306 245.792C125.354 244.112 124.878 242.194 124.878 240.038C124.878 237.854 125.326 235.936 126.222 234.284C127.146 232.604 128.406 231.288 130.002 230.336C131.598 229.384 133.39 228.908 135.378 228.908C137.366 228.908 139.144 229.37 140.712 230.294C142.308 231.218 143.554 232.52 144.45 234.2C145.374 235.852 145.836 237.77 145.836 239.954C145.836 240.038 145.822 240.136 145.794 240.248C145.794 240.332 145.794 240.43 145.794 240.542H126.432V238.904H144.66L143.82 239.702C143.848 237.994 143.484 236.468 142.728 235.124C142 233.752 141.006 232.688 139.746 231.932C138.486 231.148 137.03 230.756 135.378 230.756C133.754 230.756 132.298 231.148 131.01 231.932C129.75 232.688 128.756 233.752 128.028 235.124C127.3 236.468 126.936 238.008 126.936 239.744V240.122C126.936 241.914 127.328 243.51 128.112 244.91C128.924 246.282 130.03 247.36 131.43 248.144C132.83 248.9 134.426 249.278 136.218 249.278C137.618 249.278 138.92 249.026 140.124 248.522C141.356 248.018 142.392 247.248 143.232 246.212L144.45 247.598C143.498 248.774 142.294 249.67 140.838 250.286C139.41 250.874 137.856 251.168 136.176 251.168ZM152.333 251V219.836H154.433V251H152.333ZM163.284 251V229.076H165.384V251H163.284ZM161.94 225.506L167.778 220.55H170.802L164.208 225.506H161.94ZM182.929 251.168C180.801 251.168 178.897 250.692 177.217 249.74C175.565 248.788 174.249 247.472 173.269 245.792C172.317 244.112 171.841 242.194 171.841 240.038C171.841 237.854 172.317 235.922 173.269 234.242C174.249 232.562 175.565 231.26 177.217 230.336C178.897 229.384 180.801 228.908 182.929 228.908C184.693 228.908 186.289 229.244 187.717 229.916C189.173 230.588 190.349 231.596 191.245 232.94L189.691 234.074C188.907 232.954 187.927 232.128 186.751 231.596C185.575 231.064 184.301 230.798 182.929 230.798C181.221 230.798 179.681 231.19 178.309 231.974C176.965 232.73 175.901 233.808 175.117 235.208C174.361 236.58 173.983 238.19 173.983 240.038C173.983 241.886 174.361 243.51 175.117 244.91C175.901 246.282 176.965 247.36 178.309 248.144C179.681 248.9 181.221 249.278 182.929 249.278C184.301 249.278 185.575 249.012 186.751 248.48C187.927 247.948 188.907 247.122 189.691 246.002L191.245 247.136C190.349 248.48 189.173 249.488 187.717 250.16C186.289 250.832 184.693 251.168 182.929 251.168ZM206.436 251.168C204.56 251.168 202.936 250.832 201.564 250.16C200.192 249.46 199.128 248.424 198.372 247.052C197.644 245.652 197.28 243.93 197.28 241.886V229.076H199.38V241.718C199.38 244.182 200.01 246.058 201.27 247.346C202.53 248.634 204.308 249.278 206.604 249.278C208.256 249.278 209.684 248.928 210.888 248.228C212.092 247.528 213.016 246.548 213.66 245.288C214.304 244 214.626 242.488 214.626 240.752V229.076H216.726V251H214.71V244.91L215.004 245.624C214.36 247.332 213.282 248.69 211.77 249.698C210.286 250.678 208.508 251.168 206.436 251.168ZM225.628 251V219.836H227.728V251H225.628ZM250.397 251V246.002L250.313 245.246V237.014C250.313 234.97 249.753 233.416 248.633 232.352C247.541 231.288 245.931 230.756 243.803 230.756C242.291 230.756 240.877 231.022 239.561 231.554C238.273 232.058 237.167 232.716 236.243 233.528L235.193 232.016C236.285 231.036 237.601 230.28 239.141 229.748C240.681 229.188 242.291 228.908 243.971 228.908C246.687 228.908 248.773 229.594 250.229 230.966C251.685 232.338 252.413 234.382 252.413 237.098V251H250.397ZM242.501 251.168C240.877 251.168 239.463 250.916 238.259 250.412C237.083 249.88 236.173 249.138 235.529 248.186C234.913 247.234 234.605 246.142 234.605 244.91C234.605 243.79 234.857 242.782 235.361 241.886C235.893 240.962 236.761 240.22 237.965 239.66C239.169 239.072 240.779 238.778 242.795 238.778H250.859V240.416H242.837C240.569 240.416 238.973 240.836 238.049 241.676C237.153 242.516 236.705 243.566 236.705 244.826C236.705 246.226 237.237 247.346 238.301 248.186C239.365 249.026 240.863 249.446 242.795 249.446C244.643 249.446 246.197 249.026 247.457 248.186C248.745 247.346 249.697 246.128 250.313 244.532L250.901 245.96C250.313 247.556 249.305 248.83 247.877 249.782C246.477 250.706 244.685 251.168 242.501 251.168ZM266.609 251.168C264.789 251.168 263.081 250.902 261.485 250.37C259.917 249.838 258.699 249.166 257.831 248.354L258.797 246.674C259.637 247.402 260.757 248.032 262.157 248.564C263.557 249.068 265.069 249.32 266.693 249.32C268.989 249.32 270.641 248.942 271.649 248.186C272.657 247.43 273.161 246.436 273.161 245.204C273.161 244.308 272.895 243.608 272.363 243.104C271.859 242.572 271.173 242.166 270.305 241.886C269.437 241.606 268.485 241.382 267.449 241.214C266.413 241.018 265.377 240.808 264.341 240.584C263.305 240.36 262.353 240.038 261.485 239.618C260.617 239.198 259.917 238.624 259.385 237.896C258.881 237.14 258.629 236.146 258.629 234.914C258.629 233.794 258.937 232.786 259.553 231.89C260.169 230.994 261.093 230.28 262.325 229.748C263.557 229.188 265.097 228.908 266.945 228.908C268.317 228.908 269.689 229.104 271.061 229.496C272.461 229.888 273.595 230.406 274.463 231.05L273.497 232.73C272.573 232.03 271.537 231.526 270.389 231.218C269.241 230.91 268.079 230.756 266.903 230.756C264.775 230.756 263.207 231.148 262.199 231.932C261.219 232.716 260.729 233.696 260.729 234.872C260.729 235.796 260.981 236.538 261.485 237.098C262.017 237.63 262.717 238.05 263.585 238.358C264.453 238.638 265.405 238.876 266.441 239.072C267.477 239.24 268.513 239.436 269.549 239.66C270.585 239.884 271.537 240.206 272.405 240.626C273.273 241.018 273.959 241.578 274.463 242.306C274.995 243.006 275.261 243.958 275.261 245.162C275.261 246.366 274.925 247.416 274.253 248.312C273.609 249.208 272.643 249.908 271.355 250.412C270.067 250.916 268.485 251.168 266.609 251.168Z" fill="#BBBEC0"/>
</svg>
