<svg width="715" height="134" viewBox="0 0 715 134" fill="none" xmlns="http://www.w3.org/2000/svg">
<path d="M12.7324 118.411C12.3418 118.02 12.1465 117.19 12.1465 115.921C12.1465 113.968 12.3418 112.991 12.7324 112.991C13.5137 112.991 14.6367 112.845 16.1016 112.552C17.5664 112.259 18.9336 111.868 20.2031 111.38C21.4727 110.794 22.2051 110.257 22.4004 109.768C22.9863 107.522 23.2793 103.225 23.2793 96.8779V41.5065C23.2793 36.0378 22.9863 32.2292 22.4004 30.0808C22.2051 29.4948 21.4238 28.9089 20.0566 28.3229C18.7871 27.6394 17.4199 27.1022 15.9551 26.7116C14.4902 26.2233 13.3672 25.9792 12.5859 25.9792C12.1953 25.9792 12 25.1003 12 23.3425C12 21.78 12.1465 20.8522 12.4395 20.5593C16.3457 20.7546 20.0566 20.9499 23.5723 21.1452C27.1855 21.2429 30.6523 21.2917 33.9727 21.2917H59.4611C67.3711 21.2917 74.4511 22.5612 80.7011 25.1003C87.0491 27.6394 92.4201 31.1061 96.8141 35.5007C101.209 39.8952 104.529 44.9245 106.775 50.5886C109.119 56.2526 110.291 62.2585 110.291 68.6061C110.291 77.9809 108.24 86.4289 104.139 93.9479C100.037 101.37 94.1781 107.278 86.5601 111.673C78.9431 116.067 69.8611 118.264 59.3141 118.264C58.3381 118.264 56.8731 118.216 54.9201 118.118C53.0641 118.118 50.7211 118.069 47.8891 117.971C45.0571 117.776 42.4691 117.63 40.125 117.532C37.7812 117.434 35.7793 117.434 34.1191 117.532L12.7324 118.411ZM61.6581 110.061C69.8611 110.061 76.2091 106.546 80.7011 99.5139C85.1931 92.4829 87.4391 81.9849 87.4391 68.0202C87.4391 60.7937 86.3651 54.2995 84.2171 48.5378C82.0681 42.6784 78.9921 38.0397 74.9881 34.6218C71.0821 31.2038 66.2971 29.4948 60.6331 29.4948H59.9001C51.6001 29.4948 46.8631 30.2761 45.6911 31.8386C44.4221 33.4987 43.7871 36.5749 43.7871 41.0671V97.9029C43.7871 104.251 44.2261 107.669 45.1051 108.157C47.2541 109.427 52.7711 110.061 61.6581 110.061ZM126.433 118.411C126.043 118.02 125.848 117.093 125.848 115.628C125.848 114.163 126.043 113.43 126.433 113.43C127.215 113.43 128.24 113.235 129.51 112.845C130.779 112.454 132 111.966 133.172 111.38C134.344 110.794 134.978 110.257 135.076 109.768C135.76 107.034 136.101 103.323 136.101 98.6359V77.2489C136.101 71.78 135.223 68.1179 133.465 66.2624C132.683 65.2858 131.609 64.6022 130.242 64.2116C128.973 63.821 127.85 63.5769 126.873 63.4792C125.896 63.2839 125.408 63.0886 125.408 62.8933C125.408 60.0612 125.652 58.6452 126.141 58.6452C127.019 58.6452 128.631 58.4499 130.975 58.0593C133.318 57.6687 135.906 57.1804 138.738 56.5944C141.668 56.0085 144.402 55.4226 146.941 54.8366C149.578 54.2507 151.58 53.7624 152.947 53.3718L154.558 52.9323C155.047 52.9323 155.535 53.2741 156.023 53.9577C156.512 54.5437 156.756 55.0319 156.756 55.4226C156.267 59.7194 155.877 63.0886 155.584 65.53C155.291 67.9714 155.144 69.4851 155.144 70.071V96.4379C155.144 102.005 155.535 106.448 156.316 109.768C156.512 110.159 157.146 110.647 158.221 111.233C159.392 111.819 160.613 112.356 161.883 112.845C163.152 113.235 164.031 113.43 164.519 113.43C164.812 113.43 164.959 114.163 164.959 115.628C165.057 117.093 165.008 118.02 164.812 118.411C164.031 118.313 162.371 118.167 159.832 117.971C157.391 117.874 154.803 117.727 152.068 117.532C149.334 117.337 147.185 117.239 145.623 117.239C144.06 117.239 141.912 117.337 139.178 117.532C136.443 117.727 133.855 117.874 131.414 117.971C128.973 118.167 127.312 118.313 126.433 118.411ZM144.891 38.4304C141.863 38.4304 139.275 37.405 137.127 35.3542C135.076 33.2058 134.051 30.6179 134.051 27.5905C134.051 24.5632 135.076 22.0241 137.127 19.9733C139.275 17.8249 141.863 16.7507 144.891 16.7507C147.918 16.7507 150.457 17.8249 152.508 19.9733C154.656 22.0241 155.73 24.5632 155.73 27.5905C155.73 30.6179 154.656 33.2058 152.508 35.3542C150.457 37.405 147.918 38.4304 144.891 38.4304ZM181.541 118.411C181.15 118.02 180.955 116.995 180.955 115.335C180.955 113.772 181.15 112.991 181.541 112.991C182.322 112.991 183.445 112.796 184.91 112.405C186.375 111.917 187.742 111.38 189.012 110.794C190.281 110.208 190.965 109.72 191.062 109.329C191.746 106.595 192.088 102.884 192.088 98.1959V40.0417C192.088 37.7956 191.99 35.7937 191.795 34.0358C191.697 32.278 191.551 30.7644 191.355 29.4948C190.965 27.9323 188.426 27.1511 183.738 27.1511H182.42C181.834 27.1511 181.541 26.1745 181.541 24.2214C181.541 22.5612 181.834 21.7311 182.42 21.7311C186.228 21.3405 189.891 20.8034 193.406 20.1198C197.019 19.4362 200.193 18.7526 202.928 18.069C205.76 17.2878 207.859 16.7507 209.226 16.4577L210.984 16.0183C211.375 15.9206 211.766 16.2136 212.156 16.8972C212.547 17.4831 212.791 18.0202 212.889 18.5085C211.717 22.903 211.131 27.8347 211.131 33.3034V79.8859C213.767 79.1039 215.428 78.4699 216.111 77.9809C218.064 76.3209 220.115 74.5632 222.264 72.7077C224.51 70.8522 226.56 69.0944 228.416 67.4343C230.076 65.9694 231.297 64.7976 232.078 63.9187C232.957 62.9421 233.396 61.9655 233.396 60.989C233.396 59.6218 232.566 58.9382 230.906 58.9382C229.246 58.8405 227.83 58.694 226.658 58.4987C226.56 58.1081 226.463 57.6687 226.365 57.1804C226.365 56.6921 226.365 56.1061 226.365 55.4226C226.365 54.0554 226.56 53.3229 226.951 53.2253L243.65 53.3718C246.482 53.3718 249.168 53.3718 251.707 53.3718C254.344 53.2741 256.736 53.1765 258.885 53.0788C259.275 53.1765 259.471 53.7136 259.471 54.6901C259.568 55.569 259.568 56.4479 259.471 57.3269C259.373 58.1081 259.226 58.4987 259.031 58.4987C256.101 58.4987 252.683 59.6218 248.777 61.8679C242.039 65.7741 235.35 71.0964 228.709 77.8349C236.326 86.1359 242.478 93.1179 247.166 98.7819C251.951 104.348 255.271 107.815 257.127 109.182C258.396 110.257 260.057 111.184 262.107 111.966C264.158 112.649 265.623 112.991 266.502 112.991C266.99 112.991 267.234 113.919 267.234 115.774C267.234 116.848 267.137 117.679 266.941 118.264L248.484 117.386C247.312 117.288 245.799 117.337 243.943 117.532C242.088 117.63 239.891 117.776 237.351 117.971L229.002 118.411C228.611 118.02 228.416 116.995 228.416 115.335C228.416 113.772 228.611 112.991 229.002 112.991C229.978 112.991 231.101 112.796 232.371 112.405C233.641 112.014 234.275 111.575 234.275 111.087C234.275 110.891 234.226 110.745 234.129 110.647L212.742 86.1839L211.131 86.6239V95.9989C211.131 102.444 211.473 106.887 212.156 109.329C212.351 109.72 213.084 110.208 214.353 110.794C215.623 111.38 216.941 111.917 218.308 112.405C219.773 112.796 220.799 112.991 221.385 112.991C221.58 112.991 221.726 113.382 221.824 114.163C221.922 114.944 221.971 115.774 221.971 116.653C221.971 117.532 221.873 118.118 221.678 118.411C221.092 118.411 219.969 118.313 218.308 118.118C216.648 118.02 214.695 117.923 212.449 117.825C210.301 117.63 208.25 117.483 206.297 117.386C204.344 117.288 202.781 117.239 201.609 117.239C200.437 117.239 198.826 117.288 196.775 117.386C194.822 117.483 192.771 117.63 190.623 117.825C188.475 117.923 186.57 118.02 184.91 118.118C183.25 118.313 182.127 118.411 181.541 118.411Z" fill="#23F318"/>
<path d="M288.56 117.825V47.825H312.86C318.66 47.825 323.626 48.7583 327.76 50.625C331.96 52.4917 335.16 55.1583 337.36 58.625C339.56 62.025 340.66 66.1583 340.66 71.025C340.66 75.892 339.56 80.058 337.36 83.525C335.16 86.992 331.96 89.658 327.76 91.525C323.626 93.392 318.66 94.325 312.86 94.325H290.46L291.96 92.725V117.825H288.56ZM291.96 92.725L290.46 91.225H313.06C320.926 91.225 326.926 89.458 331.06 85.925C335.26 82.392 337.36 77.425 337.36 71.025C337.36 64.625 335.26 59.6917 331.06 56.225C326.926 52.6917 320.926 50.925 313.06 50.925H290.46L291.96 49.325V92.725ZM377.084 118.125C371.951 118.125 367.417 117.025 363.484 114.825C359.551 112.558 356.451 109.425 354.184 105.425C351.917 101.425 350.784 96.892 350.784 91.825C350.784 86.692 351.817 82.158 353.884 78.225C356.017 74.2917 358.917 71.1917 362.584 68.925C366.317 66.6583 370.517 65.525 375.184 65.525C379.784 65.525 383.917 66.625 387.584 68.825C391.317 71.025 394.217 74.0917 396.284 78.025C398.417 81.892 399.484 86.358 399.484 91.425C399.484 91.558 399.484 91.725 399.484 91.925C399.484 92.058 399.484 92.192 399.484 92.325H352.984V89.625H397.684L396.384 91.225C396.384 86.892 395.451 83.025 393.584 79.625C391.784 76.158 389.284 73.4583 386.084 71.525C382.884 69.525 379.251 68.525 375.184 68.525C371.117 68.525 367.484 69.525 364.284 71.525C361.084 73.4583 358.551 76.158 356.684 79.625C354.884 83.025 353.984 86.925 353.984 91.325V91.925C353.984 96.458 354.984 100.492 356.984 104.025C358.984 107.492 361.717 110.225 365.184 112.225C368.651 114.158 372.617 115.125 377.084 115.125C380.484 115.125 383.684 114.492 386.684 113.225C389.751 111.958 392.284 110.025 394.284 107.425L396.384 109.625C394.051 112.425 391.184 114.558 387.784 116.025C384.451 117.425 380.884 118.125 377.084 118.125ZM415.766 117.825V43.625H419.066V117.825H415.766ZM441.254 117.825V65.925H444.554V117.825H441.254ZM437.854 57.125L451.754 45.825H457.154L441.854 57.125H437.854ZM486.643 118.125C481.709 118.125 477.276 117.025 473.343 114.825C469.476 112.558 466.409 109.458 464.143 105.525C461.943 101.525 460.843 96.958 460.843 91.825C460.843 86.692 461.943 82.158 464.143 78.225C466.409 74.225 469.476 71.125 473.343 68.925C477.276 66.6583 481.709 65.525 486.643 65.525C490.576 65.525 494.209 66.2917 497.543 67.825C500.876 69.2917 503.643 71.4917 505.843 74.425L503.343 76.525C501.409 73.7917 498.976 71.7917 496.043 70.525C493.176 69.2583 490.043 68.625 486.643 68.625C482.376 68.625 478.543 69.5917 475.143 71.525C471.743 73.4583 469.043 76.192 467.043 79.725C465.109 83.192 464.143 87.225 464.143 91.825C464.143 96.425 465.109 100.492 467.043 104.025C469.043 107.492 471.743 110.225 475.143 112.225C478.543 114.158 482.376 115.125 486.643 115.125C490.043 115.125 493.176 114.492 496.043 113.225C498.976 111.892 501.409 109.892 503.343 107.225L505.843 109.225C503.643 112.225 500.876 114.458 497.543 115.925C494.209 117.392 490.576 118.125 486.643 118.125ZM542.525 118.125C538.059 118.125 534.225 117.325 531.025 115.725C527.825 114.058 525.359 111.625 523.625 108.425C521.892 105.158 521.025 101.158 521.025 96.425V65.925H524.325V96.225C524.325 102.425 525.925 107.125 529.125 110.325C532.325 113.525 536.825 115.125 542.625 115.125C546.759 115.125 550.325 114.258 553.325 112.525C556.392 110.725 558.725 108.225 560.325 105.025C561.925 101.825 562.725 98.125 562.725 93.925V65.925H566.025V117.825H562.825V103.325L563.225 104.225C561.759 108.492 559.225 111.892 555.625 114.425C552.025 116.892 547.659 118.125 542.525 118.125ZM588.227 117.825V43.625H591.527V117.825H588.227ZM646.715 117.825V105.725L646.615 103.925V84.225C646.615 79.092 645.248 75.1917 642.515 72.525C639.782 69.8583 635.815 68.525 630.615 68.525C626.815 68.525 623.348 69.1917 620.215 70.525C617.082 71.7917 614.382 73.4583 612.115 75.525L610.315 73.125C612.782 70.7917 615.815 68.9583 619.415 67.625C623.015 66.225 626.782 65.525 630.715 65.525C636.915 65.525 641.648 67.125 644.915 70.325C648.248 73.4583 649.915 78.092 649.915 84.225V117.825H646.715ZM627.415 118.125C623.482 118.125 620.115 117.525 617.315 116.325C614.582 115.125 612.482 113.425 611.015 111.225C609.548 108.958 608.815 106.392 608.815 103.525C608.815 100.992 609.415 98.658 610.615 96.525C611.815 94.325 613.782 92.592 616.515 91.325C619.315 89.992 623.048 89.325 627.715 89.325H647.815V92.025H627.715C622.048 92.025 618.015 93.092 615.615 95.225C613.282 97.358 612.115 100.058 612.115 103.325C612.115 106.992 613.482 109.925 616.215 112.125C618.948 114.258 622.748 115.325 627.615 115.325C632.415 115.325 636.382 114.258 639.515 112.125C642.648 109.925 645.015 106.825 646.615 102.825L647.715 105.025C646.382 108.958 643.982 112.125 640.515 114.525C637.048 116.925 632.682 118.125 627.415 118.125ZM684.028 118.125C679.761 118.125 675.761 117.492 672.028 116.225C668.294 114.892 665.461 113.225 663.528 111.225L665.128 108.625C667.061 110.358 669.694 111.892 673.028 113.225C676.361 114.558 680.061 115.225 684.128 115.225C689.928 115.225 694.094 114.225 696.628 112.225C699.228 110.225 700.528 107.625 700.528 104.425C700.528 102.092 699.894 100.258 698.628 98.925C697.361 97.592 695.694 96.558 693.628 95.825C691.561 95.092 689.261 94.525 686.728 94.125C684.261 93.658 681.761 93.158 679.228 92.625C676.694 92.025 674.394 91.258 672.328 90.325C670.261 89.325 668.594 87.958 667.328 86.225C666.061 84.492 665.428 82.192 665.428 79.325C665.428 76.858 666.094 74.5917 667.428 72.525C668.828 70.4583 670.928 68.7917 673.728 67.525C676.528 66.1917 680.094 65.525 684.428 65.525C687.628 65.525 690.828 66.025 694.028 67.025C697.294 67.9583 699.894 69.225 701.828 70.825L700.128 73.425C698.061 71.7583 695.628 70.525 692.828 69.725C690.094 68.925 687.261 68.525 684.328 68.525C678.928 68.525 674.994 69.5583 672.528 71.625C670.061 73.6917 668.828 76.225 668.828 79.225C668.828 81.625 669.461 83.558 670.728 85.025C671.994 86.425 673.661 87.492 675.728 88.225C677.794 88.958 680.061 89.558 682.528 90.025C685.061 90.492 687.561 90.992 690.028 91.525C692.561 92.058 694.861 92.792 696.928 93.725C698.994 94.658 700.661 95.958 701.928 97.625C703.194 99.292 703.828 101.558 703.828 104.425C703.828 107.092 703.061 109.492 701.528 111.625C700.061 113.692 697.861 115.292 694.928 116.425C692.061 117.558 688.428 118.125 684.028 118.125Z" fill="white"/>
</svg>
