<svg width="1144" height="265" viewBox="0 0 1144 265" fill="none" xmlns="http://www.w3.org/2000/svg">
<path d="M17.5889 237.977C16.9378 237.326 16.6123 235.942 16.6123 233.826C16.6123 230.571 16.9378 228.943 17.5889 228.943C18.891 228.943 20.7627 228.699 23.2041 228.211C25.6455 227.723 27.9242 227.072 30.04 226.258C32.1559 225.281 33.3766 224.386 33.7021 223.572C34.6787 219.829 35.167 212.667 35.167 202.088V109.803C35.167 100.688 34.6787 94.3405 33.7021 90.7598C33.3766 89.7832 32.0745 88.8066 29.7959 87.8301C27.68 86.6908 25.4014 85.7956 22.96 85.1445C20.5186 84.3307 18.6468 83.9238 17.3447 83.9238C16.6937 83.9238 16.3682 82.459 16.3682 79.5293C16.3682 76.9251 16.6123 75.3789 17.1006 74.8906C23.611 75.2161 29.7959 75.5417 35.6553 75.8672C41.6774 76.0299 47.4554 76.1113 52.9893 76.1113H95.4697C108.653 76.1113 120.453 78.2272 130.87 82.459C141.45 86.6908 150.401 92.4688 157.726 99.793C165.05 107.117 170.584 115.499 174.327 124.939C178.233 134.38 180.187 144.389 180.187 154.969C180.187 170.594 176.769 184.673 169.933 197.205C163.097 209.575 153.331 219.422 140.636 226.746C127.94 234.07 112.804 237.732 95.2256 237.732C93.598 237.732 91.1566 237.651 87.9014 237.488C84.8089 237.488 80.9027 237.407 76.1826 237.244C71.4626 236.919 67.1494 236.674 63.2432 236.512C59.3369 236.349 56.0003 236.349 53.2334 236.512L17.5889 237.977ZM99.1318 224.061C112.804 224.061 123.383 218.201 130.87 206.482C138.357 194.764 142.101 177.267 142.101 153.992C142.101 141.948 140.31 131.124 136.729 121.521C133.149 111.756 128.022 104.025 121.349 98.3281C114.838 92.6315 106.863 89.7832 97.4229 89.7832H96.2021C82.3675 89.7832 74.4736 91.0853 72.5205 93.6895C70.4046 96.4564 69.3467 101.583 69.3467 109.07V203.797C69.3467 214.376 70.0791 220.073 71.5439 220.887C75.1247 223.003 84.3206 224.061 99.1318 224.061ZM207.091 237.977C206.44 237.326 206.114 235.779 206.114 233.338C206.114 230.896 206.44 229.676 207.091 229.676C208.393 229.676 210.102 229.35 212.218 228.699C214.334 228.048 216.368 227.234 218.321 226.258C220.274 225.281 221.332 224.386 221.495 223.572C222.634 219.015 223.204 212.83 223.204 205.018V169.373C223.204 160.258 221.739 154.155 218.81 151.062C217.507 149.435 215.717 148.296 213.438 147.645C211.323 146.993 209.451 146.587 207.823 146.424C206.196 146.098 205.382 145.773 205.382 145.447C205.382 140.727 205.789 138.367 206.603 138.367C208.067 138.367 210.753 138.042 214.659 137.391C218.565 136.74 222.879 135.926 227.599 134.949C232.481 133.973 237.039 132.996 241.271 132.02C245.665 131.043 249.002 130.229 251.28 129.578L253.966 128.846C254.78 128.846 255.593 129.415 256.407 130.555C257.221 131.531 257.628 132.345 257.628 132.996C256.814 140.158 256.163 145.773 255.675 149.842C255.187 153.911 254.942 156.434 254.942 157.41V201.355C254.942 210.633 255.593 218.038 256.896 223.572C257.221 224.223 258.279 225.037 260.069 226.014C262.022 226.99 264.057 227.885 266.173 228.699C268.289 229.35 269.754 229.676 270.567 229.676C271.056 229.676 271.3 230.896 271.3 233.338C271.463 235.779 271.381 237.326 271.056 237.977C269.754 237.814 266.987 237.57 262.755 237.244C258.686 237.081 254.373 236.837 249.815 236.512C245.258 236.186 241.677 236.023 239.073 236.023C236.469 236.023 232.888 236.186 228.331 236.512C223.774 236.837 219.461 237.081 215.392 237.244C211.323 237.57 208.556 237.814 207.091 237.977ZM237.853 104.676C232.807 104.676 228.494 102.967 224.913 99.5488C221.495 95.9681 219.786 91.6549 219.786 86.6094C219.786 81.5638 221.495 77.332 224.913 73.9141C228.494 70.3333 232.807 68.543 237.853 68.543C242.898 68.543 247.13 70.3333 250.548 73.9141C254.129 77.332 255.919 81.5638 255.919 86.6094C255.919 91.6549 254.129 95.9681 250.548 99.5488C247.13 102.967 242.898 104.676 237.853 104.676ZM298.937 237.977C298.285 237.326 297.96 235.617 297.96 232.85C297.96 230.245 298.285 228.943 298.937 228.943C300.239 228.943 302.11 228.618 304.552 227.967C306.993 227.153 309.272 226.258 311.388 225.281C313.504 224.305 314.643 223.491 314.806 222.84C315.945 218.283 316.515 212.098 316.515 204.285V107.361C316.515 103.618 316.352 100.281 316.026 97.3516C315.864 94.4219 315.619 91.8991 315.294 89.7832C314.643 87.179 310.411 85.877 302.599 85.877H300.401C299.425 85.877 298.937 84.2493 298.937 80.9941C298.937 78.2272 299.425 76.8438 300.401 76.8438C306.749 76.1927 312.853 75.2975 318.712 74.1582C324.734 73.0189 330.024 71.8796 334.581 70.7402C339.301 69.4382 342.8 68.543 345.079 68.0547L348.009 67.3223C348.66 67.1595 349.311 67.6478 349.962 68.7871C350.613 69.7637 351.02 70.6589 351.183 71.4727C349.229 78.7969 348.253 87.0163 348.253 96.1309V173.768C352.647 172.465 355.414 171.408 356.554 170.594C359.809 167.827 363.227 164.897 366.808 161.805C370.551 158.712 373.969 155.783 377.062 153.016C379.828 150.574 381.863 148.621 383.165 147.156C384.63 145.529 385.362 143.901 385.362 142.273C385.362 139.995 383.979 138.855 381.212 138.855C378.445 138.693 376.085 138.449 374.132 138.123C373.969 137.472 373.806 136.74 373.644 135.926C373.644 135.112 373.644 134.135 373.644 132.996C373.644 130.717 373.969 129.497 374.62 129.334L402.452 129.578C407.172 129.578 411.648 129.578 415.88 129.578C420.274 129.415 424.262 129.253 427.843 129.09C428.494 129.253 428.819 130.148 428.819 131.775C428.982 133.24 428.982 134.705 428.819 136.17C428.657 137.472 428.412 138.123 428.087 138.123C423.204 138.123 417.507 139.995 410.997 143.738C399.767 150.249 388.618 159.119 377.55 170.35C390.245 184.184 400.499 195.822 408.312 205.262C416.287 214.539 421.821 220.317 424.913 222.596C427.029 224.386 429.796 225.932 433.214 227.234C436.632 228.374 439.073 228.943 440.538 228.943C441.352 228.943 441.759 230.49 441.759 233.582C441.759 235.372 441.596 236.756 441.271 237.732L410.509 236.268C408.556 236.105 406.033 236.186 402.94 236.512C399.848 236.674 396.186 236.919 391.954 237.244L378.038 237.977C377.387 237.326 377.062 235.617 377.062 232.85C377.062 230.245 377.387 228.943 378.038 228.943C379.666 228.943 381.537 228.618 383.653 227.967C385.769 227.316 386.827 226.583 386.827 225.77C386.827 225.444 386.746 225.2 386.583 225.037L350.938 184.266L348.253 184.998V200.623C348.253 211.365 348.823 218.771 349.962 222.84C350.287 223.491 351.508 224.305 353.624 225.281C355.74 226.258 357.937 227.153 360.216 227.967C362.657 228.618 364.366 228.943 365.343 228.943C365.668 228.943 365.912 229.594 366.075 230.896C366.238 232.199 366.319 233.582 366.319 235.047C366.319 236.512 366.157 237.488 365.831 237.977C364.854 237.977 362.983 237.814 360.216 237.488C357.449 237.326 354.194 237.163 350.45 237C346.869 236.674 343.451 236.43 340.196 236.268C336.941 236.105 334.337 236.023 332.384 236.023C330.431 236.023 327.745 236.105 324.327 236.268C321.072 236.43 317.654 236.674 314.073 237C310.493 237.163 307.319 237.326 304.552 237.488C301.785 237.814 299.913 237.977 298.937 237.977Z" fill="#1E9500"/>
<path d="M473.668 238V126H512.548C521.828 126 529.774 127.493 536.388 130.48C543.108 133.467 548.228 137.733 551.748 143.28C555.268 148.72 557.028 155.333 557.028 163.12C557.028 170.907 555.268 177.573 551.748 183.12C548.228 188.667 543.108 192.933 536.388 195.92C529.774 198.907 521.828 200.4 512.548 200.4H476.707L479.108 197.84V238H473.668ZM479.108 197.84L476.707 195.44H512.868C525.454 195.44 535.054 192.613 541.668 186.96C548.388 181.307 551.748 173.36 551.748 163.12C551.748 152.88 548.388 144.987 541.668 139.44C535.054 133.787 525.454 130.96 512.868 130.96H476.707L479.108 128.4V197.84ZM615.306 238.48C607.093 238.48 599.84 236.72 593.546 233.2C587.253 229.573 582.293 224.56 578.666 218.16C575.04 211.76 573.226 204.507 573.226 196.4C573.226 188.187 574.88 180.933 578.186 174.64C581.6 168.347 586.24 163.387 592.106 159.76C598.08 156.133 604.8 154.32 612.266 154.32C619.626 154.32 626.24 156.08 632.106 159.6C638.08 163.12 642.72 168.027 646.026 174.32C649.44 180.507 651.146 187.653 651.146 195.76C651.146 195.973 651.146 196.24 651.146 196.56C651.146 196.773 651.146 196.987 651.146 197.2H576.746V192.88H648.266L646.186 195.44C646.186 188.507 644.693 182.32 641.706 176.88C638.826 171.333 634.826 167.013 629.706 163.92C624.586 160.72 618.773 159.12 612.266 159.12C605.76 159.12 599.946 160.72 594.826 163.92C589.706 167.013 585.653 171.333 582.666 176.88C579.786 182.32 578.346 188.56 578.346 195.6V196.56C578.346 203.813 579.946 210.267 583.146 215.92C586.346 221.467 590.72 225.84 596.266 229.04C601.813 232.133 608.16 233.68 615.306 233.68C620.746 233.68 625.866 232.667 630.666 230.64C635.573 228.613 639.626 225.52 642.826 221.36L646.186 224.88C642.453 229.36 637.866 232.773 632.426 235.12C627.093 237.36 621.386 238.48 615.306 238.48ZM677.198 238V119.28H682.478V238H677.198ZM717.979 238V154.96H723.259V238H717.979ZM712.539 140.88L734.779 122.8H743.419L718.939 140.88H712.539ZM790.6 238.48C782.707 238.48 775.613 236.72 769.32 233.2C763.133 229.573 758.227 224.613 754.6 218.32C751.08 211.92 749.32 204.613 749.32 196.4C749.32 188.187 751.08 180.933 754.6 174.64C758.227 168.24 763.133 163.28 769.32 159.76C775.613 156.133 782.707 154.32 790.6 154.32C796.893 154.32 802.707 155.547 808.04 158C813.373 160.347 817.8 163.867 821.32 168.56L817.32 171.92C814.227 167.547 810.333 164.347 805.64 162.32C801.053 160.293 796.04 159.28 790.6 159.28C783.773 159.28 777.64 160.827 772.2 163.92C766.76 167.013 762.44 171.387 759.24 177.04C756.147 182.587 754.6 189.04 754.6 196.4C754.6 203.76 756.147 210.267 759.24 215.92C762.44 221.467 766.76 225.84 772.2 229.04C777.64 232.133 783.773 233.68 790.6 233.68C796.04 233.68 801.053 232.667 805.64 230.64C810.333 228.507 814.227 225.307 817.32 221.04L821.32 224.24C817.8 229.04 813.373 232.613 808.04 234.96C802.707 237.307 796.893 238.48 790.6 238.48ZM880.013 238.48C872.866 238.48 866.733 237.2 861.613 234.64C856.493 231.973 852.546 228.08 849.773 222.96C846.999 217.733 845.613 211.333 845.613 203.76V154.96H850.893V203.44C850.893 213.36 853.453 220.88 858.573 226C863.693 231.12 870.893 233.68 880.173 233.68C886.786 233.68 892.493 232.293 897.293 229.52C902.199 226.64 905.933 222.64 908.493 217.52C911.053 212.4 912.333 206.48 912.333 199.76V154.96H917.613V238H912.493V214.8L913.133 216.24C910.786 223.067 906.733 228.507 900.973 232.56C895.213 236.507 888.226 238.48 880.013 238.48ZM953.135 238V119.28H958.415V238H953.135ZM1046.72 238V218.64L1046.56 215.76V184.24C1046.56 176.027 1044.37 169.787 1040 165.52C1035.62 161.253 1029.28 159.12 1020.96 159.12C1014.88 159.12 1009.33 160.187 1004.32 162.32C999.303 164.347 994.983 167.013 991.356 170.32L988.476 166.48C992.423 162.747 997.276 159.813 1003.04 157.68C1008.8 155.44 1014.82 154.32 1021.12 154.32C1031.04 154.32 1038.61 156.88 1043.84 162C1049.17 167.013 1051.84 174.427 1051.84 184.24V238H1046.72ZM1015.84 238.48C1009.54 238.48 1004.16 237.52 999.676 235.6C995.303 233.68 991.943 230.96 989.596 227.44C987.25 223.813 986.076 219.707 986.076 215.12C986.076 211.067 987.036 207.333 988.956 203.92C990.876 200.4 994.023 197.627 998.396 195.6C1002.88 193.467 1008.85 192.4 1016.32 192.4H1048.48V196.72H1016.32C1007.25 196.72 1000.8 198.427 996.956 201.84C993.223 205.253 991.356 209.573 991.356 214.8C991.356 220.667 993.543 225.36 997.916 228.88C1002.29 232.293 1008.37 234 1016.16 234C1023.84 234 1030.18 232.293 1035.2 228.88C1040.21 225.36 1044 220.4 1046.56 214L1048.32 217.52C1046.18 223.813 1042.34 228.88 1036.8 232.72C1031.25 236.56 1024.26 238.48 1015.84 238.48ZM1106.42 238.48C1099.59 238.48 1093.19 237.467 1087.22 235.44C1081.24 233.307 1076.71 230.64 1073.62 227.44L1076.18 223.28C1079.27 226.053 1083.48 228.507 1088.82 230.64C1094.15 232.773 1100.07 233.84 1106.58 233.84C1115.86 233.84 1122.52 232.24 1126.58 229.04C1130.74 225.84 1132.82 221.68 1132.82 216.56C1132.82 212.827 1131.8 209.893 1129.78 207.76C1127.75 205.627 1125.08 203.973 1121.78 202.8C1118.47 201.627 1114.79 200.72 1110.74 200.08C1106.79 199.333 1102.79 198.533 1098.74 197.68C1094.68 196.72 1091 195.493 1087.7 194C1084.39 192.4 1081.72 190.213 1079.7 187.44C1077.67 184.667 1076.66 180.987 1076.66 176.4C1076.66 172.453 1077.72 168.827 1079.86 165.52C1082.1 162.213 1085.46 159.547 1089.94 157.52C1094.42 155.387 1100.12 154.32 1107.06 154.32C1112.18 154.32 1117.3 155.12 1122.42 156.72C1127.64 158.213 1131.8 160.24 1134.9 162.8L1132.18 166.96C1128.87 164.293 1124.98 162.32 1120.5 161.04C1116.12 159.76 1111.59 159.12 1106.9 159.12C1098.26 159.12 1091.96 160.773 1088.02 164.08C1084.07 167.387 1082.1 171.44 1082.1 176.24C1082.1 180.08 1083.11 183.173 1085.14 185.52C1087.16 187.76 1089.83 189.467 1093.14 190.64C1096.44 191.813 1100.07 192.773 1104.02 193.52C1108.07 194.267 1112.07 195.067 1116.02 195.92C1120.07 196.773 1123.75 197.947 1127.06 199.44C1130.36 200.933 1133.03 203.013 1135.06 205.68C1137.08 208.347 1138.1 211.973 1138.1 216.56C1138.1 220.827 1136.87 224.667 1134.42 228.08C1132.07 231.387 1128.55 233.947 1123.86 235.76C1119.27 237.573 1113.46 238.48 1106.42 238.48Z" fill="white"/>
</svg>
